# xmcd CD database file
#
# Track frame offsets:
#	182
#	23085
#	41925
#	72440
#	107857
#	140392
#	161342
#	181665
#	236732
#
# Disc length: 3406 seconds
#
# Revision: 0
# Processed by: cddbd v1.5.2PL0 Copyright (c) Steve Scherf et al.
# Submitted via: CDex 1.79
#
DISCID=760d4c09
DTITLE=John Coltrane - John Coltrane cd 09 Harmonique
DYEAR=1994
DGENRE=Jazz
TTITLE0=Bemsha Swing
TTITLE1=The Invisible
TTITLE2=Cherryco
TTITLE3=The Blessing
TTITLE4=The Sleeper
TTITLE5=Limehouse Blus
TTITLE6=Grand Central
TTITLE7=Focus on Sanity
TTITLE8=Harmonique
EXTD=YEAR: 1994
EXTT0=
EXTT1=
EXTT2=
EXTT3=
EXTT4=
EXTT5=
EXTT6=
EXTT7=
EXTT8=
PLAYORDER=
